<svg xmlns="http://www.w3.org/2000/svg" viewBox="0 0 64 64">
  <path
    d="M14 28a18 18 0 0 1 36 0"
    fill="none"
    stroke="#bc4a26"
    stroke-width="4"
    stroke-linecap="round"
  />
  <circle cx="32" cy="9.4" r="1.8" fill="#bc4a26" />
  <circle cx="14" cy="28" r="1.8" fill="#bc4a26" />
  <circle cx="50" cy="28" r="1.8" fill="#bc4a26" />
  <path
    d="M32 16v10.5l6.5 5.5"
    fill="none"
    stroke="#2b2318"
    stroke-width="3.4"
    stroke-linecap="round"
    stroke-linejoin="round"
  />
  <path
    d="M6 29c9 .3 20 2.6 26 10v19c-6-7.4-17-9.7-26-10V29Z"
    fill="#2b2318"
  />
  <path
    d="M58 29c-9 .3-20 2.6-26 10v19c6-7.4 17-9.7 26-10V29Z"
    fill="#2b2318"
  />
  <path
    d="M37.5 43.5l4 4 8-8.5"
    fill="none"
    stroke="#fbf6ea"
    stroke-width="3.6"
    stroke-linecap="round"
    stroke-linejoin="round"
  />
</svg>
